<?xml version="1.0"?>
<svg xmlns="http://www.w3.org/2000/svg" xmlns:xlink="http://www.w3.org/1999/xlink" id="Layer_1" data-name="Layer 1" viewBox="0 0 128 128" width="512" height="512"><defs><linearGradient id="linear-gradient" x1="109.269" y1="109.269" x2="18.731" y2="18.731" gradientUnits="userSpaceOnUse"><stop offset="0" stop-color="#40b4f9"/><stop offset="1" stop-color="#ff8533"/></linearGradient></defs><title>NETWORK</title><path d="M72.246,54.538a1.751,1.751,0,0,1-2.447.371c-.215-.158-.437-.309-.663-.449a1.75,1.75,0,1,1,1.848-2.973q.457.284.892.6A1.75,1.75,0,0,1,72.246,54.538ZM128.02,64a9.082,9.082,0,0,1-17.994,1.75H90.937A26.88,26.88,0,0,1,84.275,81.8L97.782,95.308a9.1,9.1,0,0,1,11.486,1.115,1.75,1.75,0,0,1-2.475,2.475,5.582,5.582,0,1,0,1.577,4.757,1.75,1.75,0,1,1,3.463.5A9.084,9.084,0,1,1,95.305,97.78l-13.5-13.5A27.063,27.063,0,0,1,65.75,90.937v19.088a9.083,9.083,0,1,1-3.5,0V90.937A27.063,27.063,0,0,1,46.2,84.275L32.692,97.782a9.084,9.084,0,1,1-2.475-2.474L43.725,81.8A26.88,26.88,0,0,1,37.063,65.75H17.975a9.083,9.083,0,1,1,0-3.5H37.063A26.88,26.88,0,0,1,43.725,46.2L30.218,32.692a9.083,9.083,0,1,1,2.475-2.474L46.2,43.725A26.88,26.88,0,0,1,62.25,37.063V17.975a9.083,9.083,0,1,1,3.5,0V37.063A26.88,26.88,0,0,1,81.8,43.725L95.308,30.218a9.076,9.076,0,1,1,2.475,2.474L84.275,46.2A26.88,26.88,0,0,1,90.937,62.25h19.088A9.082,9.082,0,0,1,128.02,64ZM97.262,25.154A5.584,5.584,0,1,0,98.9,21.206,5.548,5.548,0,0,0,97.262,25.154ZM64,14.647a5.583,5.583,0,1,0-5.583-5.583A5.59,5.59,0,0,0,64,14.647ZM25.154,30.738A5.584,5.584,0,1,0,21.206,29.1,5.548,5.548,0,0,0,25.154,30.738ZM14.647,64a5.583,5.583,0,1,0-5.583,5.583A5.59,5.59,0,0,0,14.647,64Zm16.091,38.846a5.584,5.584,0,1,0-1.636,3.948A5.548,5.548,0,0,0,30.738,102.846ZM64,113.353a5.583,5.583,0,1,0,5.583,5.583A5.59,5.59,0,0,0,64,113.353ZM87.5,64A23.5,23.5,0,1,0,47.9,81.094l7.08-5.306.239-1.143a2.833,2.833,0,0,0-.755-2.556A13.307,13.307,0,0,1,64,49.5h.044a1.75,1.75,0,0,1-.006,3.5H64a9.806,9.806,0,0,0-7.028,16.646,6.328,6.328,0,0,1,1.673,5.714l-.375,1.79a1.754,1.754,0,0,1-.663,1.041l-6.9,5.172a23.435,23.435,0,0,0,26.586,0l-6.9-5.172a1.754,1.754,0,0,1-.663-1.041l-.375-1.788a6.317,6.317,0,0,1,1.668-5.711,9.813,9.813,0,0,0,2.707-8.091,9.554,9.554,0,0,0-.641-2.448,1.75,1.75,0,0,1,3.238-1.326,13.014,13.014,0,0,1,.877,3.349A13.3,13.3,0,0,1,73.529,72.1a2.82,2.82,0,0,0-.748,2.55l.239,1.142,7.08,5.306A23.432,23.432,0,0,0,87.5,64Zm37.02,0a5.583,5.583,0,1,0-5.584,5.583A5.59,5.59,0,0,0,124.52,64Z" style="fill:url(#linear-gradient)"/></svg>
